<?xml version="1.0" standalone="no"?>
<!DOCTYPE svg PUBLIC "-//W3C//DTD SVG 20010904//EN"
 "http://www.w3.org/TR/2001/REC-SVG-20010904/DTD/svg10.dtd">
<svg version="1.0" xmlns="http://www.w3.org/2000/svg"
 width="360.000000pt" height="360.000000pt" viewBox="0 0 360.000000 360.000000"
 preserveAspectRatio="xMidYMid meet">

<g transform="translate(0.000000,360.000000) scale(0.100000,-0.100000)"
fill="#000000" stroke="none">
<path d="M1215 3195 c-240 -39 -377 -80 -530 -158 -82 -42 -115 -66 -186 -137
-75 -74 -92 -99 -142 -200 -76 -156 -128 -343 -157 -571 -19 -154 -62 -96 417
-559 l426 -411 71 69 c39 38 327 315 639 616 312 302 567 552 565 557 -2 5
-192 191 -423 414 l-420 405 -60 -1 c-33 0 -123 -11 -200 -24z"/>
<path d="M2070 3217 c0 -6 249 -249 720 -702 245 -236 475 -458 513 -494 l67
-65 0 632 0 632 -650 0 c-357 0 -650 -1 -650 -3z"/>
<path d="M1871 1597 c-349 -338 -635 -616 -635 -618 -1 -3 190 -191 424 -418
l425 -412 165 5 c126 4 190 11 271 30 366 85 631 301 767 626 53 126 74 235
79 416 l5 171 -27 21 c-24 19 -389 371 -706 679 -63 62 -119 113 -125 113 -5
0 -294 -276 -643 -613z"/>
<path d="M190 781 l0 -631 657 0 658 0 -50 49 c-348 338 -1231 1189 -1246
1200 -19 13 -19 1 -19 -618z"/>
</g>
</svg>
